<svg id="Capa_1" data-name="Capa 1" xmlns="http://www.w3.org/2000/svg" viewBox="0 0 68.25 56.89"><title>Mesa de trabajo 1 copia</title><path d="M34.12,17.07h0a5.69,5.69,0,0,0,5.69,5.69H51.18A17.05,17.05,0,0,1,68.23,39.82h0a17,17,0,0,1-17.05,17H22.75A22.74,22.74,0,0,1,0,34.13V2.86A2.84,2.84,0,0,1,2.85,0H8.54a2.84,2.84,0,0,1,2.84,2.84V31.29A14.21,14.21,0,0,0,25.59,45.5H51.18a5.68,5.68,0,0,0,5.68-5.68h0a5.68,5.68,0,0,0-5.68-5.69H39.81A17.06,17.06,0,0,1,22.75,17.07h0A17.05,17.05,0,0,1,39.81,0H65.39a2.84,2.84,0,0,1,2.84,2.84V8.55a2.84,2.84,0,0,1-2.84,2.84H39.81A5.68,5.68,0,0,0,34.12,17.07Z"/></svg>